<?xml version="1.0" encoding="iso-8859-1"?>
<!-- Generator: Adobe Illustrator 19.0.0, SVG Export Plug-In . SVG Version: 6.00 Build 0)  -->
<svg version="1.1" id="Capa_1" xmlns="http://www.w3.org/2000/svg" xmlns:xlink="http://www.w3.org/1999/xlink" x="0px" y="0px"
	 viewBox="0 0 480 480" style="enable-background:new 0 0 480 480;" xml:space="preserve">
<g>
	<g>
		<path d="M472,0H8C3.582,0,0,3.582,0,8v464c0,4.418,3.582,8,8,8h464c4.418,0,8-3.582,8-8V8C480,3.582,476.418,0,472,0z M464,464H16
			V80h448V464z M464,64H16V16h448V64z"/>
	</g>
</g>
<g>
	<g>
		<rect x="32" y="32" width="24" height="16"/>
	</g>
</g>
<g>
	<g>
		<rect x="72" y="32" width="24" height="16"/>
	</g>
</g>
<g>
	<g>
		<path d="M120,112H56c-4.418,0-8,3.582-8,8v64c0,4.418,3.582,8,8,8h64c4.418,0,8-3.582,8-8v-64C128,115.582,124.418,112,120,112z
			 M112,176H64v-48h48V176z"/>
	</g>
</g>
<g>
	<g>
		<path d="M120,232H56c-4.418,0-8,3.582-8,8v64c0,4.418,3.582,8,8,8h64c4.418,0,8-3.582,8-8v-64C128,235.582,124.418,232,120,232z
			 M112,296H64v-48h48V296z"/>
	</g>
</g>
<g>
	<g>
		<path d="M120,352H56c-4.418,0-8,3.582-8,8v64c0,4.418,3.582,8,8,8h64c4.418,0,8-3.582,8-8v-64C128,355.582,124.418,352,120,352z
			 M112,416H64v-48h48V416z"/>
	</g>
</g>
<g>
	<g>
		<rect x="144" y="136" width="16" height="16"/>
	</g>
</g>
<g>
	<g>
		<path d="M285.656,138.344l-32-32l-11.312,11.312L260.688,136H176v16h84.688l-18.344,18.344l11.312,11.312l32-32
			C288.779,146.532,288.779,141.468,285.656,138.344z"/>
	</g>
</g>
<g>
	<g>
		<rect x="144" y="264" width="16" height="16"/>
	</g>
</g>
<g>
	<g>
		<path d="M437.656,266.344l-32-32l-11.312,11.312L412.688,264H176v16h236.688l-18.344,18.344l11.312,11.312l32-32
			C440.779,274.532,440.779,269.468,437.656,266.344z"/>
	</g>
</g>
<g>
	<g>
		<rect x="144" y="392" width="16" height="16"/>
	</g>
</g>
<g>
	<g>
		<path d="M357.656,394.344l-32-32l-11.312,11.312L332.688,392H176v16h156.688l-18.344,18.344l11.312,11.312l32-32
			C360.779,402.532,360.779,397.468,357.656,394.344z"/>
	</g>
</g>
<g>
</g>
<g>
</g>
<g>
</g>
<g>
</g>
<g>
</g>
<g>
</g>
<g>
</g>
<g>
</g>
<g>
</g>
<g>
</g>
<g>
</g>
<g>
</g>
<g>
</g>
<g>
</g>
<g>
</g>
</svg>
